<svg width="22" height="22" viewBox="0 0 22 22" fill="none" xmlns="http://www.w3.org/2000/svg">
<path d="M19.2836 4.70898V10.2434C19.2836 15.2621 15.8805 19.6621 10.9992 20.8996C6.11797 19.6621 2.71484 15.2621 2.71484 10.2434V4.70898C6.53047 4.26211 8.73047 2.81836 10.9992 1.09961C13.268 2.81836 15.468 4.26211 19.2836 4.70898Z" fill="#A9DC95"/>
<path d="M11 18.6994C7.32188 17.5307 4.8125 14.1275 4.8125 10.2432V6.49629C7.39062 5.94629 9.28125 4.88066 11 3.71191C12.7531 4.91504 14.6094 5.94629 17.1875 6.49629V10.2432C17.1875 14.1275 14.6781 17.5307 11 18.6994Z" fill="#215020"/>
<path d="M9.625 14.368L7.5625 12.3398L8.62813 11.3086L9.625 12.3055L13.3719 8.55859L14.4375 9.58984L9.625 14.368Z" fill="white"/>
</svg>
