<svg xmlns="http://www.w3.org/2000/svg" viewBox="0 0 108 64"><g fill="#62c9b8" stroke="#438cf5" stroke-width="2"><circle cx="10" cy="12" r="5"/><circle cx="10" cy="32" r="5"/><circle cx="10" cy="52" r="5"/><circle cx="42" cy="12" r="5"/><circle cx="42" cy="32" r="5"/><circle cx="42" cy="52" r="5"/><circle cx="74" cy="12" r="5"/><circle cx="74" cy="32" r="5"/><circle cx="74" cy="52" r="5"/><circle cx="98" cy="12" r="5"/><circle cx="98" cy="32" r="5"/><circle cx="98" cy="52" r="5"/><path fill="none" d="M15 12h22M15 32h22M15 52h22M47 12h22M47 32h22M47 52h22M79 12h14M79 32h14M79 52h14M15 12l22 20M15 32l22 20M47 12l22 20M47 32l22 20M79 12l14 20M79 32l14 20"/></g></svg>
