<?xml version="1.0" encoding="UTF-8"?>
<!-- Generator: visioncortex VTracer 0.6.12 -->
<svg viewBox="0 0 7 12" version="1.1" xmlns="http://www.w3.org/2000/svg" width="7" height="12">
<path d="M0 0 C2.875 1.241 4.929 2.646 7 5 C6.082 7.128 5.128 9.072 3.5 10.75 C3.382 10.877 3.263 11.005 3.141 11.136 C2.416 11.837 1.889 12.075 0.906 12.078 C0.607 12.052 0.308 12.027 0 12 C0.532 9.242 1.247 7.247 3 5 C2.783 4.807 2.567 4.613 2.344 4.414 C2.062 4.151 1.781 3.888 1.5 3.625 C1.428 3.562 1.428 3.562 1.066 3.242 C0.046 2.271 0.046 2.271 -0.094 1.452 C-0.094 0.898 -0.094 0.898 0 0 Z " fill="#3477F0" transform="translate(0,0)"/>
</svg>
