<?xml version="1.0" encoding="UTF-8"?>
<!-- Generator: visioncortex VTracer 0.6.12 -->
<svg viewBox="0 0 24 24" version="1.1" xmlns="http://www.w3.org/2000/svg" width="24" height="24">
<path d="M0 0 C0.177 -0.003 0.353 -0.007 0.535 -0.01 C3.83 -0.03 5.872 0.929 8.277 3.242 C10.175 5.358 10.457 7.303 10.5 10.125 C10.503 10.302 10.507 10.478 10.51 10.66 C10.53 13.955 9.571 15.997 7.258 18.402 C5.142 20.3 3.197 20.582 0.375 20.625 C0.198 20.628 0.022 20.632 -0.16 20.635 C-3.455 20.655 -5.497 19.696 -7.902 17.383 C-9.8 15.267 -10.082 13.322 -10.125 10.5 C-10.128 10.323 -10.132 10.147 -10.135 9.965 C-10.155 6.67 -9.196 4.628 -6.883 2.223 C-4.767 0.325 -2.822 0.043 0 0 Z M-0.812 3.312 C-1.143 4.303 -1.473 5.293 -1.812 6.312 C-0.492 5.982 0.828 5.652 2.188 5.312 C1.857 4.652 1.527 3.992 1.188 3.312 C0.527 3.312 -0.133 3.312 -0.812 3.312 Z M4.188 4.312 C4.188 4.973 4.188 5.633 4.188 6.312 C4.848 5.982 5.508 5.652 6.188 5.312 C5.527 4.982 4.867 4.652 4.188 4.312 Z M-1.812 8.312 C-1.812 9.633 -1.812 10.953 -1.812 12.312 C-0.162 11.982 1.488 11.652 3.188 11.312 C2.857 10.322 2.527 9.332 2.188 8.312 C0.867 8.312 -0.453 8.312 -1.812 8.312 Z M5.188 8.312 C5.188 9.633 5.188 10.953 5.188 12.312 C6.178 12.312 7.168 12.312 8.188 12.312 C8.188 10.992 8.188 9.672 8.188 8.312 C7.197 8.312 6.207 8.312 5.188 8.312 Z M-1.812 14.312 C-1.482 15.303 -1.152 16.293 -0.812 17.312 C-0.152 17.312 0.508 17.312 1.188 17.312 C1.518 16.322 1.848 15.332 2.188 14.312 C0.867 14.312 -0.453 14.312 -1.812 14.312 Z M4.188 14.312 C4.517 14.973 4.848 15.633 5.188 16.312 C5.517 15.652 5.848 14.992 6.188 14.312 C5.527 14.312 4.867 14.312 4.188 14.312 Z " fill="#3376F1" transform="translate(11.8125,1.6875)"/>
<path d="" fill="#4070EF" transform="translate(0,0)"/>
</svg>
